<svg version="1.2" xmlns="http://www.w3.org/2000/svg" viewBox="0 0 2283 2283" width="1024" height="1024">
	<path fill="currentColor" d="m2142.2 1012.2c0 250.1-203.4 454.9-453.8 454.9-117.1 0-219.1-35.9-307.8-92.6l-101.4 476.7h-233.5l139.9-657c-66.2-82.8-120.6-176.7-165-269v99.5c0 243.3-197.6 442.4-440.8 442.4-242.9 0-440.8-199.2-440.8-442.4v-593.7h228.2v593.7c0.3 117.1 95.2 212.3 212.6 212.6 117.4-0.3 212.3-95.2 212.6-212.6v-593.7h228.2c45 154.9 122.6 338.7 224.3 491.7 66.8-226.7 231.5-364.2 443.4-364.2 250.5-0.1 453.9 203.3 453.9 453.7zm-228.3 0.2c0-124.6-101.1-225.6-225.6-225.6-166.3 0-219.8 160-237 255.2l-0.7 3.6-18.9 89.6c78.3 63.6 164.7 102.4 256.6 102.4 124.5 0.1 225.6-101 225.6-225.2z"/>
</svg>
